<?xml version="1.0" encoding="iso-8859-1"?>
<!-- Uploaded to: SVG Repo, www.svgrepo.com, Generator: SVG Repo Mixer Tools -->
<svg height="800px" width="800px" version="1.1" id="Layer_1" xmlns="http://www.w3.org/2000/svg" xmlns:xlink="http://www.w3.org/1999/xlink" 
	 viewBox="0 0 469.333 469.333" xml:space="preserve">
<circle style="fill:#F5B945;" cx="277.333" cy="192" r="181.333"/>
<path d="M277.333,384c-105.867,0-192-86.133-192-192s86.133-192,192-192s192,86.133,192,192S383.2,384,277.333,384z M277.333,21.333
	c-94.101,0-170.667,76.565-170.667,170.667s76.565,170.667,170.667,170.667S448,286.101,448,192S371.435,21.333,277.333,21.333z"/>
<circle style="fill:#F7C76A;" cx="277.333" cy="192" r="117.333"/>
<path d="M277.333,320c-70.581,0-128-57.419-128-128s57.419-128,128-128s128,57.419,128,128S347.915,320,277.333,320z
	 M277.333,85.333c-58.816,0-106.667,47.851-106.667,106.667s47.851,106.667,106.667,106.667S384,250.816,384,192
	S336.149,85.333,277.333,85.333z"/>
<path d="M298.667,181.333H256c-5.877,0-10.667-4.789-10.667-10.667V160c0-5.877,4.789-10.667,10.667-10.667h64
	c5.888,0,10.667-4.779,10.667-10.667S325.888,128,320,128h-32v-10.667c0-5.888-4.779-10.667-10.667-10.667
	s-10.667,4.779-10.667,10.667V128H256c-17.643,0-32,14.357-32,32v10.667c0,17.643,14.357,32,32,32h42.667
	c5.877,0,10.667,4.789,10.667,10.667V224c0,5.877-4.789,10.667-10.667,10.667h-64c-5.888,0-10.667,4.779-10.667,10.667
	S228.779,256,234.667,256h32v10.667c0,5.888,4.779,10.667,10.667,10.667S288,272.555,288,266.667V256h10.667
	c17.643,0,32-14.357,32-32v-10.667C330.667,195.691,316.309,181.333,298.667,181.333z"/>
<g>
	<path style="fill:#F5B945;" d="M245.333,458.667H32c-11.787,0-21.333-9.547-21.333-21.333v-32C10.667,393.547,20.213,384,32,384
		h213.333c11.787,0,21.333,9.547,21.333,21.333v32C266.667,449.12,257.12,458.667,245.333,458.667z"/>
	<path style="fill:#F5B945;" d="M277.333,384H64c-11.787,0-21.333-9.547-21.333-21.333v-32c0-11.787,9.547-21.333,21.333-21.333
		h213.333c11.787,0,21.333,9.547,21.333,21.333v32C298.667,374.453,289.12,384,277.333,384z"/>
</g>
<path d="M277.333,298.667H64c-17.643,0-32,14.357-32,32v32c0,3.755,0.768,7.317,1.963,10.667H32c-17.643,0-32,14.357-32,32v32
	c0,17.643,14.357,32,32,32h213.333c17.643,0,32-14.357,32-32v-32c0-3.755-0.768-7.317-1.963-10.667h1.963c17.643,0,32-14.357,32-32
	v-32C309.333,313.024,294.976,298.667,277.333,298.667z M256,405.333v32c0,5.877-4.789,10.667-10.667,10.667H32
	c-5.877,0-10.667-4.789-10.667-10.667v-32c0-5.877,4.789-10.667,10.667-10.667h10.667V416c0,5.888,4.779,10.667,10.667,10.667
	S64,421.888,64,416v-21.333h21.333v10.667C85.333,411.221,90.112,416,96,416s10.667-4.779,10.667-10.667v-10.667H128V416
	c0,5.888,4.779,10.667,10.667,10.667s10.667-4.779,10.667-10.667v-21.333h21.333v10.667c0,5.888,4.779,10.667,10.667,10.667
	S192,411.221,192,405.333v-10.667h21.333V416c0,5.888,4.779,10.667,10.667,10.667s10.667-4.779,10.667-10.667v-21.333h10.667
	C251.211,394.667,256,399.456,256,405.333z M288,362.667c0,5.877-4.789,10.667-10.667,10.667h-32H64
	c-5.877,0-10.667-4.789-10.667-10.667v-32C53.333,324.789,58.123,320,64,320h10.667v21.333c0,5.888,4.779,10.667,10.667,10.667
	S96,347.221,96,341.333V320h21.333v10.667c0,5.888,4.779,10.667,10.667,10.667s10.667-4.779,10.667-10.667V320H160v21.333
	c0,5.888,4.779,10.667,10.667,10.667s10.667-4.779,10.667-10.667V320h21.333v10.667c0,5.888,4.779,10.667,10.667,10.667
	S224,336.555,224,330.667V320h21.333v21.333c0,5.888,4.779,10.667,10.667,10.667s10.667-4.779,10.667-10.667V320h10.667
	c5.877,0,10.667,4.789,10.667,10.667V362.667z"/>
<path d="M458.667,426.667H448V416c0-5.888-4.779-10.667-10.667-10.667s-10.667,4.779-10.667,10.667v10.667H416
	c-5.888,0-10.667,4.779-10.667,10.667S410.112,448,416,448h10.667v10.667c0,5.888,4.779,10.667,10.667,10.667
	S448,464.555,448,458.667V448h10.667c5.888,0,10.667-4.779,10.667-10.667S464.555,426.667,458.667,426.667z"/>
<path d="M53.333,21.333H42.667V10.667C42.667,4.779,37.888,0,32,0S21.333,4.779,21.333,10.667v10.667H10.667
	C4.779,21.333,0,26.112,0,32s4.779,10.667,10.667,10.667h10.667v10.667C21.333,59.221,26.112,64,32,64s10.667-4.779,10.667-10.667
	V42.667h10.667C59.221,42.667,64,37.888,64,32S59.221,21.333,53.333,21.333z"/>
<circle cx="202.667" cy="192" r="10.667"/>
<circle cx="352" cy="192" r="10.667"/>
</svg>